<?xml version="1.0" encoding="utf-8"?>
<!-- Generator: Adobe Illustrator 17.1.0, SVG Export Plug-In . SVG Version: 6.00 Build 0)  -->
<!DOCTYPE svg PUBLIC "-//W3C//DTD SVG 1.1//EN" "http://www.w3.org/Graphics/SVG/1.1/DTD/svg11.dtd">
<svg version="1.1" id="Layer_1" xmlns="http://www.w3.org/2000/svg" xmlns:xlink="http://www.w3.org/1999/xlink" x="0px" y="0px"
	 viewBox="0 0 25 32" enable-background="new 0 0 25 32" xml:space="preserve">
<g id="icomoon-ignore">
</g>
<g id="XMLID_1_">
	<g>
		<path fill="#99FFE2" d="M15.2,6.4c1,0.6,1.8,1.5,2.3,2.5H7.7C8.1,7.9,8.9,7,10,6.4l0.5-0.3V4.2c0-1.2,0.9-2.1,2.1-2.1
			c1.1,0,2.1,0.9,2.1,2.1v1.9L15.2,6.4z"/>
		<path fill="#99FFE2" d="M9.4,4.7v0.8C7.8,6.4,6.6,8,6.3,10h12.6c-0.3-1.9-1.5-3.6-3.1-4.5V4.7h8.4v25.2H1V4.7H9.4z M18.9,19.4v-1
			H6.3v1H18.9z M18.9,15.2v-1.1H6.3v1.1H18.9z M14.7,23.6v-1.1H6.3v1.1H14.7z"/>
		<rect x="6.3" y="18.4" width="12.6" height="1"/>
		<rect x="6.3" y="14.2" width="12.6" height="1"/>
		<rect x="6.3" y="22.6" width="8.4" height="1"/>
		<path d="M17.5,8.9c-0.4-1.1-1.2-2-2.3-2.5l-0.5-0.3V4.2c0-1.2-0.9-2.1-2.1-2.1c-1.2,0-2.1,0.9-2.1,2.1v1.9L10,6.4
			C8.9,7,8.1,7.9,7.7,8.9H17.5z M24.1,29.9V4.7h-8.4v0.8c1.6,0.9,2.8,2.6,3.1,4.5H6.3C6.6,8,7.8,6.4,9.4,5.5V4.7H1v25.2H24.1z
			 M25.2,3.7V31H0V3.7h9.5C9.7,2.2,11,1,12.6,1s2.8,1.1,3.1,2.6H25.2z"/>
	</g>
	<g>
	</g>
</g>
</svg>
